<?xml version="1.0" encoding="UTF-8"?>
<svg width="24px" height="24px" viewBox="0 0 24 24" version="1.1" xmlns="http://www.w3.org/2000/svg">
    <g stroke="none" stroke-width="1" fill="none" fill-rule="evenodd">
        <path d="M21.5,10.8h-9.3V13h5.9c-0.3,3.1-2.9,4.4-5.9,4.4c-3.6,0-6.6-2.9-6.6-6.6c0-3.6,2.9-6.6,6.6-6.6c1.8,0,3.4,0.7,4.7,1.9l1.9-1.9c-1.8-1.7-4.1-2.7-6.6-2.7c-5.4,0-9.8,4.4-9.8,9.8s4.4,9.8,9.8,9.8c4.9,0,9.3-3.5,9.3-9.8C21.5,11.1,21.5,10.9,21.5,10.8z" fill="#FFB000"/>
    </g>
</svg>
